<?xml version="1.0" encoding="utf-8"?>
<!-- Generator: Adobe Illustrator 19.2.0, SVG Export Plug-In . SVG Version: 6.00 Build 0)  -->
<svg version="1.1" id="Capa_1" xmlns="http://www.w3.org/2000/svg" xmlns:xlink="http://www.w3.org/1999/xlink" x="0px" y="0px"
	 viewBox="0 0 21.1 33" style="enable-background:new 0 0 21.1 33;" xml:space="preserve">
<style type="text/css">
	.st0{fill:#E64C4C;stroke:#000000;stroke-miterlimit:10;}
</style>
<g>
	<path class="st0" d="M10.6,0.5L10.6,0.5C5,0.5,0.5,5,0.5,10.5c0,3.6,1.6,8.4,4.9,14.2c2.4,4.3,4.9,7.6,4.9,7.6
		c0.1,0.1,0.2,0.1,0.3,0.1c0,0,0,0,0,0c0.1,0,0.2-0.1,0.3-0.2c0,0,2.5-3.7,4.8-8.2c3.2-6.1,4.9-10.6,4.9-13.6
		C20.6,5,16.1,0.5,10.6,0.5z M15.2,10.8c0,2.6-2.1,4.6-4.6,4.6c-2.6,0-4.6-2.1-4.6-4.6S8,6.1,10.5,6.1C13.1,6.1,15.2,8.2,15.2,10.8z
		"/>
</g>
</svg>
